# xmcd
#
# Track frame offsets:
#	150
#	25258
#	48505
#	75014
#	100858
#	127865
#	150849
#	172645
#	199822
#	225564
#	251818
#	273043
#	297024
#	331971
#
# Disc length: 4744 seconds
#
# Revision: 0
# Processed by: cddbd v1.5.2PL0 Copyright (c) Steve Scherf et al.
# Submitted via: dBpowerAMP V4.0
#
DISCID=9e12860e
DTITLE=BABBU MAAN - Laarian
DYEAR=2005
DGENRE=Cult
TTITLE0=Laarian
TTITLE1=cfh
TTITLE2=hf
TTITLE3=fgh
TTITLE4=hg
TTITLE5=fgh
TTITLE6=h
TTITLE7=Yaddan
TTITLE8=fxgfxg
TTITLE9=dt
TTITLE10=tyu
TTITLE11=tyu
TTITLE12=yu
TTITLE13=rtud
EXTD=
EXTT0=
EXTT1=
EXTT2=
EXTT3=
EXTT4=
EXTT5=
EXTT6=
EXTT7=
EXTT8=
EXTT9=
EXTT10=
EXTT11=
EXTT12=
EXTT13=
PLAYORDER=
